<svg width="189" height="123" viewBox="0 0 189 123" fill="none" xmlns="http://www.w3.org/2000/svg">
<path fill-rule="evenodd" clip-rule="evenodd" d="M1.04514 0.601886C0.401508 1.18307 -0.154957 6.23536 0.417407 6.30123C0.601269 6.32223 0.641637 7.16533 0.507407 8.17426C0.210717 10.407 1.04891 19.2884 1.56195 19.347C1.76404 19.3701 1.99885 20.1231 2.08257 21.0208C2.16682 21.9186 2.47967 23.3512 2.77739 24.2048C4.26567 28.4708 4.56071 29.6758 4.21772 30.0872C4.01225 30.3339 4.11754 30.567 4.45141 30.6051C4.78527 30.6433 4.89464 30.9747 4.69338 31.3416C4.49264 31.7086 4.64116 32.3162 5.02356 32.6917C5.40538 33.0676 5.58128 33.4772 5.41393 33.6026C5.24612 33.7275 5.41198 34.3912 5.78207 35.0777C6.15216 35.7642 6.30732 36.5032 6.12701 36.7191C5.94716 36.9355 6.07886 37.2515 6.42086 37.4217C6.76239 37.5914 7.24419 38.7874 7.49132 40.0793C7.73897 41.3713 8.17448 42.4552 8.45991 42.4878C8.74586 42.5205 8.80977 42.8571 8.60237 43.2363C8.39502 43.6149 8.56041 44.1534 8.96963 44.4326C9.37932 44.7124 9.72833 45.2833 9.74541 45.702C9.76254 46.1202 10.0839 47.0346 10.4595 47.7332C10.8356 48.4318 11.2528 49.5192 11.3871 50.149C11.522 50.7788 11.7997 51.3137 12.0054 51.3372C12.5966 51.4047 13.9262 54.4913 13.5557 54.9358C13.3717 55.1567 13.6976 55.5133 14.2792 55.7292C14.8608 55.9452 15.1551 56.3394 14.9337 56.6057C14.7117 56.872 14.8036 57.1209 15.1375 57.159C15.4979 57.2002 15.5661 57.5552 15.3047 58.0325C15.0627 58.4743 15.0446 58.7017 15.265 58.5376C15.6746 58.2312 18.1819 62.6206 18.0845 63.4738C18.0547 63.7341 18.3961 63.9887 18.8424 64.0397C19.2888 64.0907 19.5162 64.2985 19.3475 64.5007C18.9574 64.9688 20.9479 67.7573 21.7354 67.8472C22.0605 67.8844 22.292 68.2133 22.2503 68.5781C22.1666 69.3107 27.0603 74.9129 27.8639 75.0047C28.1421 75.0365 28.3314 75.3934 28.2852 75.7979C28.239 76.2025 28.6106 76.5842 29.1117 76.6459C29.6128 76.7076 30.8566 77.7691 31.8762 79.0052C32.8959 80.2408 35.0142 81.961 36.5841 82.8283C38.1536 83.695 39.4162 84.5962 39.3894 84.8306C39.3627 85.065 39.8095 85.3103 40.3825 85.3757C40.9554 85.4411 41.4073 85.6607 41.3864 85.8629C41.3654 86.0652 41.9033 86.5528 42.5818 86.9462C43.2602 87.3396 43.8378 87.4612 43.8657 87.2171C43.8936 86.9729 44.1508 86.7996 44.4373 86.8323C44.7238 86.865 44.9257 87.1757 44.8861 87.5228C44.8452 87.8808 45.5269 88.288 46.4588 88.4625C47.3628 88.6323 48.3503 89.0138 48.6529 89.3111C48.9551 89.6084 49.3667 89.7284 49.5679 89.5786C49.7687 89.4281 50.2605 89.6269 50.6604 90.0203C51.102 90.4547 52.1009 90.7083 53.2053 90.6661C54.4316 90.6199 55.197 90.8479 55.5598 91.3677C56.1904 92.2727 57.8179 92.5619 58.3933 91.8711C58.6598 91.5514 59.0754 91.6872 59.6223 92.2723C60.659 93.3817 63.8823 93.9003 65.1015 93.1539C65.6864 92.7955 66.129 92.7829 66.3163 93.1198C66.8278 94.0375 79.8462 95.6431 80.4919 94.868C80.794 94.5056 80.9886 94.5293 81.2029 94.9536C81.4064 95.3574 81.817 95.4207 82.5298 95.1583C83.9609 94.6308 84.3273 94.7397 83.8786 95.5593C83.4777 96.2924 84.0208 96.5869 84.758 96.0362C84.9934 95.8609 86.2865 95.802 87.6312 95.9064C90.3143 96.114 92.2252 96.0417 93.6858 95.677C94.2571 95.5346 94.6107 95.6634 94.5723 95.9998C94.5305 96.3656 94.8415 96.4513 95.4675 96.2466C95.9953 96.0744 96.775 96.002 97.2007 96.0859C97.6264 96.1698 98.4056 95.9726 98.9324 95.6469C99.4593 95.3216 100.12 95.2272 100.402 95.4367C100.719 95.6736 100.822 95.4936 100.673 94.9619C100.474 94.2543 100.594 94.2109 101.366 94.7138C102.341 95.3487 104.021 94.6003 103.365 93.8234C103.189 93.6156 103.672 93.6712 104.437 93.9469C105.555 94.3492 105.849 94.281 105.927 93.5999C106.009 92.8831 106.14 92.8653 106.772 93.4863C107.382 94.0865 107.609 94.1139 108.008 93.6354C108.301 93.2835 108.6 93.2551 108.756 93.5644C108.899 93.848 109.733 94.0834 110.609 94.0875C111.748 94.0924 112.179 94.3016 112.119 94.8208C112.074 95.22 112.394 95.5873 112.83 95.6372C113.267 95.687 114.729 96.6364 116.078 97.7467C117.428 98.8571 119.045 99.8242 119.672 99.8957C120.298 99.9673 121.013 100.235 121.26 100.49C121.506 100.745 122.731 101.352 123.982 101.837C125.232 102.323 126.693 103.041 127.229 103.432C127.765 103.823 128.966 104.221 129.898 104.315C130.831 104.409 131.578 104.628 131.558 104.801C131.489 105.404 136.518 106.809 141.352 107.537C142.109 107.652 142.579 107.925 142.395 108.146C142.211 108.367 142.819 108.529 143.746 108.507C144.673 108.486 145.532 108.665 145.654 108.907C145.775 109.148 146.525 109.42 147.32 109.511C148.115 109.602 148.91 109.847 149.087 110.057C149.264 110.266 150.46 110.576 151.746 110.746C153.44 110.97 154.032 110.875 153.899 110.4C153.704 109.704 154.335 109.586 154.87 110.218C155.253 110.671 156.607 110.979 160.088 111.405C164.199 111.908 167.659 112.105 167.69 111.838C167.705 111.703 168.304 111.659 169.02 111.741C169.736 111.823 170.301 112.071 170.276 112.292C170.251 112.514 170.606 112.443 171.067 112.134C173.222 110.692 173.646 110.506 173.586 111.031C173.552 111.327 173.79 111.452 174.116 111.31C174.503 111.14 174.435 110.693 173.918 110.016C173.457 109.412 173.379 109.01 173.73 109.05C174.061 109.088 174.354 108.925 174.381 108.689C174.408 108.452 173.073 108.193 171.413 108.114C169.753 108.034 166.805 107.857 164.861 107.72C162.916 107.583 161.195 107.569 161.035 107.688C160.875 107.808 159.766 107.654 158.569 107.346C157.373 107.039 155.44 106.828 154.273 106.879C153.107 106.93 152.054 106.789 151.935 106.566C151.815 106.344 151.013 106.088 150.153 105.998C147.741 105.746 141.989 104.369 141.165 103.847C140.759 103.59 139.121 103.205 137.527 102.993C135.932 102.78 133.911 102.164 133.036 101.624C132.161 101.084 130.977 100.703 130.404 100.776C129.832 100.85 129.383 100.745 129.406 100.544C129.466 100.015 125.638 98.4099 124.993 98.6924C124.694 98.8237 123.965 98.4329 123.372 97.8242C122.169 96.5896 121.724 96.3778 122.164 97.2496C122.369 97.657 122.147 97.6262 121.415 97.1467C120.842 96.7709 120.399 96.2468 120.429 95.9815C120.459 95.7163 119.944 95.5521 119.284 95.6172C118.043 95.7398 115.432 93.5302 115.376 92.3108C115.361 91.9762 115.21 91.4324 115.041 91.1027C114.873 90.773 115.12 90.2668 115.592 89.978C116.317 89.5342 116.38 89.5901 115.998 90.3407C115.561 91.1984 115.582 91.2023 116.633 90.4529C117.677 89.7079 117.686 89.6478 116.855 88.9141C116.221 88.3534 116.178 88.114 116.694 88.0131C117.081 87.9376 117.654 88.2598 117.968 88.7292C118.452 89.4552 118.512 89.3756 118.367 88.1977C118.233 87.1144 118.386 86.8338 119.065 86.9113C119.542 86.9659 119.775 87.2006 119.581 87.4328C119.388 87.665 119.452 88.0206 119.724 88.2235C119.996 88.4259 120.246 88.3452 120.281 88.0437C120.315 87.7421 120.562 87.6585 120.829 87.858C121.51 88.3654 121.528 87.5161 120.854 86.7183C120.42 86.2053 120.493 86.081 121.182 86.1596C121.669 86.2153 122.106 85.9166 122.154 85.4963C122.202 85.0761 122.454 84.8903 122.714 85.0839C122.973 85.2774 123.384 84.9299 123.627 84.312C123.929 83.5432 124.426 83.2408 125.203 83.3539C126.006 83.4714 126.321 83.2641 126.282 82.6442C126.25 82.1249 126.555 81.806 127.031 81.8605C127.474 81.911 127.861 81.7317 127.892 81.462C127.922 81.1923 128.315 81.0136 128.764 81.0648C129.332 81.1297 129.516 80.8607 129.371 80.183C129.23 79.524 129.552 79.01 130.365 78.5977C131.027 78.262 131.439 77.7314 131.281 77.4183C131.124 77.1052 131.334 76.8878 131.749 76.9352C132.163 76.9825 132.514 76.6312 132.529 76.155C132.543 75.6782 132.841 75.3775 133.191 75.4855C133.541 75.5941 133.874 75.278 133.931 74.7837C133.987 74.2889 134.228 73.7392 134.466 73.5613C134.704 73.3838 134.936 73.0934 134.981 72.9167C135.122 72.366 135.985 70.796 137.207 68.8657C138.785 66.3711 140.187 61.6583 140.85 56.6152C141.276 53.3745 141.21 51.7481 140.553 49.2544C140.089 47.4942 139.522 46.0321 139.293 46.0059C139.064 45.9798 138.785 45.5271 138.672 45.0006C138.428 43.8661 136.7 41.3842 136.597 42.0206C136.557 42.263 136.248 41.8229 135.91 41.0426C135.541 40.1939 134.991 39.6968 134.537 39.8044C134.099 39.9084 133.693 39.5793 133.573 39.0238C133.436 38.3832 132.339 37.6424 130.275 36.7977C127.289 35.5755 127.12 35.5557 125.333 36.2189C124.316 36.5964 123.462 37.0915 123.436 37.3185C123.41 37.5461 123.037 37.6917 122.607 37.6427C122.178 37.5936 121.803 37.751 121.776 37.9923C121.748 38.2335 121.107 38.8751 120.35 39.418C119.594 39.961 119.06 40.7057 119.162 41.0731C119.266 41.4405 119.146 41.7179 118.896 41.6894C118.647 41.6609 117.763 42.4541 116.931 43.4519C116.1 44.4497 115.227 45.2442 114.991 45.2172C114.755 45.1903 114.687 45.416 114.84 45.7185C114.992 46.0211 114.807 46.5488 114.428 46.8915C114.048 47.2341 113.883 47.8024 114.061 48.154C114.287 48.603 114.119 48.6628 113.497 48.3544C112.755 47.986 112.64 48.1169 112.794 49.1568C112.906 49.9111 112.704 50.5239 112.279 50.7178C111.264 51.181 109.908 53.0812 110.542 53.1536C110.831 53.1866 111.042 53.4342 111.011 53.7039C110.981 53.9736 110.577 54.151 110.113 54.098C109.496 54.0276 109.3 54.3365 109.38 55.2557C109.44 55.945 109.133 56.8602 108.699 57.2889C108.264 57.7176 107.855 58.4667 107.79 58.9536C107.725 59.4404 107.508 59.7161 107.308 59.567C107.107 59.4175 106.867 59.768 106.773 60.3455C106.68 60.9235 106.336 62.1484 106.01 63.0674C105.684 63.9863 105.196 66.1187 104.927 67.8061C104.657 69.493 104.304 70.9727 104.142 71.0933C103.849 71.3122 103.514 76.5373 103.67 78.4472C103.715 78.9987 103.937 80.1005 104.164 80.8953C104.39 81.6901 104.501 82.9883 104.41 83.7797C104.291 84.8251 104.496 85.2474 105.161 85.3233C106.154 85.4367 107.339 88.1799 106.81 89.1448C106.385 89.9223 99.3215 92.2221 98.7248 91.7774C98.4691 91.5868 98.2358 91.6431 98.2061 91.9025C98.1765 92.1624 96.9076 92.3547 95.3871 92.3301C93.8661 92.3054 91.9112 92.2728 91.0423 92.2576C90.1734 92.2428 89.1496 92.3737 88.7665 92.549C88.3628 92.7339 88.0961 92.6443 88.1314 92.3349C88.1927 91.798 84.8248 91.5017 84.1753 91.9864C83.9919 92.1234 83.2345 91.9962 82.4917 91.7037C81.7489 91.4112 80.6627 91.2012 80.0782 91.2373C79.0616 91.3005 69.3865 90.3216 68.8633 90.1029C68.7248 90.0449 66.6281 89.6921 64.204 89.3189C59.2183 88.5513 55.2927 87.6122 54.9589 87.1071C54.8352 86.9196 53.4692 86.6235 51.9231 86.4489C49.0653 86.126 44.7393 84.1884 44.8433 83.2774C44.876 82.991 44.574 82.9883 44.1116 83.2718C43.496 83.649 43.0128 83.4443 41.9001 82.3352C41.1165 81.5542 39.9682 80.8578 39.3484 80.787C38.713 80.7144 38.3895 80.4559 38.6072 80.1947C38.8219 79.9366 37.7675 79.0278 36.2283 78.1457C34.7075 77.2736 33.6005 76.3956 33.768 76.1947C33.935 75.9937 33.4296 75.4899 32.6438 75.0753C31.1592 74.2923 29.2419 72.0411 29.3385 71.1953C29.369 70.9281 28.9003 70.6525 28.2966 70.5836C27.5934 70.5032 27.3225 70.2334 27.5419 69.8322C27.8934 69.1894 25.2291 66.9041 24.313 67.0622C24.0406 67.1091 24.1947 66.7999 24.6553 66.3746C25.1154 65.9498 25.214 65.7197 24.8736 65.8631C24.1917 66.1513 22.5409 64.3156 23.1039 63.8951C23.2966 63.7512 22.9093 62.9882 22.2432 62.2003C21.5771 61.4124 21.0542 60.5718 21.0815 60.3325C21.1088 60.0932 20.6487 59.691 20.0586 59.4388C19.3629 59.1412 19.2116 58.8811 19.6282 58.6987C20.0726 58.5035 19.9707 58.097 19.2965 57.3752C18.7609 56.8024 18.0505 55.5942 17.7173 54.6908C17.3846 53.7875 16.6972 52.5203 16.1899 51.8758C15.6826 51.2312 15.4356 50.5021 15.641 50.2558C15.8464 50.0095 15.7843 49.7819 15.5035 49.7498C15.2233 49.7178 14.9145 49.012 14.8184 48.1814C14.7222 47.3508 14.4551 46.6497 14.226 46.6235C13.8166 46.5768 12.7662 44.0437 10.7227 38.1758C9.45956 34.5485 8.80289 32.4488 8.79477 32.0117C8.79131 31.8295 8.63172 31.4944 8.43968 31.2678C8.24822 31.0408 8.12257 30.5794 8.1611 30.242C8.19957 29.9052 7.83779 28.5038 7.35693 27.1285C6.45217 24.5401 6.37726 24.1888 6.43409 22.795C6.45297 22.3386 6.13952 21.5766 5.73794 21.1011C5.33579 20.626 5.12329 20.2505 5.26548 20.2667C5.40767 20.283 5.20171 19.0002 4.80805 17.4159C4.41434 15.8321 4.25769 14.2331 4.46033 13.8633C4.66245 13.4935 4.65649 12.7879 4.44627 12.2955C4.23657 11.8031 4.09588 9.8473 4.13432 7.94921C4.209 4.27397 4.18135 3.72142 3.82256 1.70245C3.57405 0.302591 2.04649 -0.302544 1.04514 0.601886ZM128.268 39.528C128.386 39.9499 128.689 40.2045 128.942 40.0938C129.194 39.983 129.522 40.1337 129.671 40.4284C129.819 40.723 130.293 41.0041 130.722 41.0531C132.593 41.2668 136.589 47.5107 136.995 50.8534C137.171 52.3005 136.218 60.3689 135.652 62.2306C134.62 65.6237 133.367 68.3 132.74 68.4489C132.368 68.5371 132.167 68.9741 132.292 69.4206C132.448 69.9779 132.331 70.0916 131.918 69.7837C131.542 69.5028 131.341 69.5886 131.382 70.0135C131.47 70.9366 129.796 74.2285 129.269 74.1683C129.035 74.1416 128.654 74.6052 128.421 75.199C128.188 75.7923 127.464 76.7066 126.813 77.2298C126.161 77.7534 125.602 78.4113 125.57 78.6922C125.503 79.2797 124.643 79.2863 124.38 78.7014C124.283 78.4857 124.239 78.576 124.282 78.9023C124.325 79.2286 123.995 79.7194 123.549 79.9924C123.103 80.2658 122.844 80.6997 122.974 80.9564C123.103 81.2136 122.896 81.3881 122.513 81.3444C122.13 81.3007 121.355 81.6686 120.792 82.1626C120.228 82.656 119.553 82.9009 119.293 82.7072C118.859 82.3834 118.566 82.9689 118.798 83.6973C118.851 83.8648 118.188 84.256 117.323 84.5665C116.458 84.8765 114.984 85.638 114.047 86.2582C112.371 87.3672 110.295 87.692 110.394 86.83C110.421 86.5878 109.853 85.7062 109.13 84.8706C108.407 84.0349 107.933 83.1096 108.078 82.8141C108.222 82.5181 108.095 81.619 107.796 80.8149C107.212 79.2436 108.341 68.3247 109.247 66.7826C109.513 66.3306 109.66 65.5198 109.575 64.9811C109.489 64.4423 109.622 63.9578 109.87 63.9046C110.118 63.8514 110.472 63.2193 110.658 62.4994C110.844 61.7795 111.179 61.0543 111.402 60.8871C111.626 60.7204 111.867 60.0689 111.939 59.4393C112.011 58.8102 112.315 58.3234 112.614 58.3575C112.913 58.3916 113.141 58.1386 113.122 57.7947C113.103 57.4512 113.272 56.8556 113.499 56.4716C114.44 54.8724 115.381 52.9611 115.234 52.9443C115.147 52.9345 115.545 52.427 116.117 51.8168C116.69 51.2071 117.225 50.1506 117.307 49.469C117.42 48.5391 117.554 48.4189 117.848 48.9864C118.136 49.5408 118.398 49.241 118.838 47.8577C119.178 46.7877 120.078 45.527 120.921 44.9403C121.822 44.313 122.172 43.8036 121.812 43.6438C121.486 43.4993 121.395 43.0611 121.608 42.6707C121.912 42.1153 122.071 42.1077 122.338 42.6353C122.768 43.4887 125.013 41.6047 125.196 40.2372C125.298 39.467 125.435 39.4359 126.049 40.0401C126.604 40.5853 126.943 40.6384 127.449 40.261C127.954 39.8832 127.965 39.7448 127.492 39.6907C127.148 39.6515 126.892 39.3987 126.923 39.129C127.009 38.368 128.028 38.6701 128.268 39.528ZM124.59 41.0686C124.577 41.1878 124.316 41.3944 124.01 41.5284C123.705 41.6624 123.481 41.538 123.514 41.2527C123.547 40.9673 123.808 40.7602 124.094 40.7929C124.381 40.8256 124.604 40.9495 124.59 41.0686ZM168.328 98.6229C168.171 98.8096 168.261 98.9878 168.529 99.0184C168.797 99.0489 169.082 99.767 169.163 100.614C169.245 101.461 169.544 102.052 169.828 101.927C170.113 101.803 170.69 102.108 171.111 102.606C171.532 103.104 172.699 103.653 173.705 103.826C174.71 104 175.675 104.422 175.847 104.765C176.02 105.108 176.569 105.291 177.067 105.173C177.673 105.029 177.944 105.21 177.886 105.717C177.839 106.134 178.055 106.667 178.369 106.9C178.748 107.183 178.86 107.047 178.704 106.493C178.504 105.778 178.642 105.759 179.686 106.355C180.354 106.736 180.878 107.239 180.852 107.472C180.825 107.705 181.388 108.184 182.103 108.536C182.991 108.973 183.276 109.407 183.002 109.909C182.781 110.312 182.579 110.826 182.553 111.053C182.528 111.279 181.805 111.527 180.948 111.605C179.844 111.705 179.179 112.159 178.673 113.161C178.259 113.979 177.736 114.41 177.432 114.184C177.143 113.968 176.137 114.395 175.195 115.133C174.253 115.87 173.225 116.444 172.911 116.408C172.596 116.372 172.435 116.686 172.553 117.106C172.671 117.529 172.51 117.788 172.191 117.686C171.873 117.584 171.27 117.984 170.85 118.574C170.43 119.163 169.76 119.869 169.363 120.142C168.799 120.53 168.749 120.488 169.137 119.951C169.546 119.385 169.494 119.36 168.849 119.806C168.199 120.255 168.16 120.54 168.623 121.447C168.931 122.05 168.948 122.368 168.661 122.154C168.374 121.94 168.124 121.895 168.106 122.055C168.087 122.214 168.547 122.573 169.127 122.852C169.995 123.27 170.75 122.915 173.395 120.84C175.162 119.454 176.923 118.356 177.309 118.4C177.695 118.444 178.048 118.157 178.094 117.763C178.139 117.368 179.114 116.585 180.261 116.023C181.409 115.461 182.118 114.969 181.837 114.929C181.321 114.854 183.279 113.903 183.861 113.946C184.437 113.988 187.241 111.251 187.939 109.965C188.99 108.03 188.897 107.144 187.518 105.945C186.823 105.341 186.394 105.125 186.566 105.464C186.992 106.31 186.234 106.13 185.109 105.118C184.598 104.659 183.816 104.234 183.37 104.175C182.924 104.116 181.491 103.418 180.184 102.624C178.678 101.709 177.877 101.426 177.996 101.852C178.197 102.566 175.682 101.14 174.498 99.8685C174.168 99.5134 173.374 99.2906 172.733 99.3729C172.041 99.4617 171.72 99.3421 171.94 99.0776C172.157 98.8168 171.545 98.5601 170.462 98.4578C169.446 98.3616 168.485 98.4362 168.328 98.6229ZM187.522 106.617C187.659 106.887 187.516 107.219 187.205 107.356C186.895 107.492 186.68 107.259 186.728 106.839C186.827 105.977 187.154 105.886 187.522 106.617ZM182.771 107.899C182.579 108.042 182.128 108.009 181.768 107.824C181.37 107.62 181.507 107.518 182.117 107.564C182.668 107.605 182.962 107.756 182.771 107.899Z" fill="#F9F2E9"/>
</svg>