<?xml version="1.0" encoding="UTF-8"?>
<svg xmlns="http://www.w3.org/2000/svg" width="112" height="79" viewBox="0 0 112 79" fill="none"><path d="M43.155 10.8632C39.2997 18.1452 35.0412 25.1021 30.152 31.7404C25.1784 38.4892 20.0357 45.6346 13.4822 50.9336C10.602 53.2677 6.80512 53.9829 3.7039 51.5188C1.0838 49.4317 -0.483075 44.913 1.78595 41.9156C6.79211 35.3098 12.663 29.4452 17.8642 22.989C22.7403 16.9423 27.3304 10.6031 31.6149 4.12734C36.348 -3.03111 47.2055 3.2236 43.155 10.8762V10.8632Z" fill="#C5EE5B"/><path d="M60.4305 19.0432C60.1444 27.7426 60.0729 36.4484 60.2484 45.1478C60.424 53.8147 61.2822 62.6051 60.9181 71.2589C60.7686 74.9129 58.2265 78.0728 54.5141 78.5149C51.2503 78.905 46.9464 76.9025 46.4067 73.2224C45.0869 64.1915 45.2495 54.9005 45.4575 45.785C45.659 36.858 46.1336 27.9441 46.8228 19.0432C47.1089 15.3827 49.742 12.2423 53.6234 12.2423C57.2122 12.2423 60.5475 15.3567 60.424 19.0432H60.4305Z" fill="#C5EE5B"/><path d="M83.7704 23.5808C86.2215 29.9006 89.6022 36.5454 93.6397 41.6493C95.9152 44.5165 98.4768 47.2213 101.181 49.6855C104.419 52.6373 108.125 54.0742 110.602 58.1963C114.711 65.0296 107.956 72.2596 100.869 70.8552C96.3118 69.9515 92.0273 65.2962 88.8611 62.0063C85.6948 58.7229 82.8407 55.0949 80.3766 51.2524C75.6955 43.9509 72.1847 35.7131 71.0014 27.1048C69.8441 18.7175 80.6432 15.4926 83.7769 23.5808H83.7704Z" fill="#C5EE5B"/></svg>